<?xml version="1.0" encoding="UTF-8"?>
<svg id="Vrstva_2" data-name="Vrstva 2" xmlns="http://www.w3.org/2000/svg" viewBox="0 0 152.31 173.04">
  <defs>
    <style>
      .cls-1 {
        fill: #fff;
      }
    </style>
  </defs>
  <g id="Vrstva_1-2" data-name="Vrstva 1">
    <path class="cls-1" d="M100.5,0c13.14,1.34,30.56,8.78,37.92,20.08,12.97,19.91,8.15,51.77-14.43,62.43-.27,1.39.75,1.71,1.73,2.27,14.81,8.33,24.44,14.83,26.27,33.73,3.6,37.2-24.14,53.29-57.45,54.54l-87.54-.04v-18.5l28.5-34.48c2.7,1.84.53,4.68.45,7.44-.18,6.5.23,13.05.05,19.55h60.5c1.86,0,9.63-2.32,11.78-3.22,12.57-5.29,15.37-20.04,10.23-31.78-4.04-9.23-12.23-10.96-20.99-13.02-1.19-.28-1.81.76-1.5-1.46l24.97-32.08,10.02,5.56,2.01-40.5-20.35,5.54c-1.44-2.18-3.65-3.91-5.96-5.24-2.07-1.19-10.38-4.8-12.19-4.8h-58.5v53.5L7,113V0h93.5Z"/>
    <path class="cls-1" d="M0,134.5l44-54.06c1.18-.95,1.64-.11,2.53.5,3.83,2.64,19.22,22.72,21.94,22.06l40.04-50.03c2.04-3.62-3.72-4.57-3.52-7.96l22-7-1,22.99-6.5-3.83c-13.48,16.36-26.84,33.13-39.89,49.93-3.36,4.32-7.19,9.12-9.61,13.9-1.45.37-1.64-.33-2.5-.98-7.67-5.79-14.97-16.23-21.98-23L0,152v-17.5Z"/>
  </g>
</svg>